<?xml version="1.0" encoding="UTF-8" standalone="no"?>
<!-- Created with Inkscape (http://www.inkscape.org/) -->

<svg
   width="147.71419mm"
   height="27.57798mm"
   viewBox="0 0 147.71419 27.57798"
   version="1.1"
   id="svg1"
   inkscape:version="1.4.2 (ebf0e940d0, 2025-05-08)"
   sodipodi:docname="Logo of Hacker News.svg"
   xmlns:inkscape="http://www.inkscape.org/namespaces/inkscape"
   xmlns:sodipodi="http://sodipodi.sourceforge.net/DTD/sodipodi-0.dtd"
   xmlns="http://www.w3.org/2000/svg"
   xmlns:svg="http://www.w3.org/2000/svg">
  <sodipodi:namedview
     id="namedview1"
     pagecolor="#ffffff"
     bordercolor="#000000"
     borderopacity="0.25"
     inkscape:showpageshadow="2"
     inkscape:pageopacity="0.0"
     inkscape:pagecheckerboard="0"
     inkscape:deskcolor="#d1d1d1"
     inkscape:document-units="mm"
     inkscape:zoom="0.71268238"
     inkscape:cx="303.78189"
     inkscape:cy="193.63465"
     inkscape:window-width="1870"
     inkscape:window-height="1011"
     inkscape:window-x="0"
     inkscape:window-y="0"
     inkscape:window-maximized="1"
     inkscape:current-layer="layer1" />
  <defs
     id="defs1">
    <clipPath
       id="clip-30">
      <path
         clip-rule="nonzero"
         d="m 67.121094,4.480469 h 7.558594 v 7.558593 h -7.558594 z m 0,0"
         id="path200" />
    </clipPath>
  </defs>
  <g
     inkscape:label="Layer 1"
     inkscape:groupmode="layer"
     id="layer1"
     transform="translate(-24.630833,-97.26666)">
    <path
       fill-rule="nonzero"
       fill="#ff6600"
       fill-opacity="1"
       d="M 24.630833,97.26666 H 172.34502 v 27.57798 H 24.630833 Z m 0,0"
       id="path306"
       style="stroke-width:0.765131" />
    <path
       fill-rule="nonzero"
       fill="#ffffff"
       fill-opacity="1"
       d="m 26.994029,99.629873 h 22.060175 v 0.791247 H 26.994029 Z m 0,0"
       id="path307"
       style="stroke-width:2.81385" />
    <path
       fill-rule="nonzero"
       fill="#ffffff"
       fill-opacity="1"
       d="m 49.054204,99.629873 h 0.791403 v 22.060147 h -0.791403 z m 0,0"
       id="path308"
       style="stroke-width:2.81385" />
    <path
       fill-rule="nonzero"
       fill="#ffffff"
       fill-opacity="1"
       d="M 27.774436,121.69002 H 49.83461 v 0.79125 H 27.774436 Z m 0,0"
       id="path309"
       style="stroke-width:2.81385" />
    <path
       fill-rule="nonzero"
       fill="#ffffff"
       fill-opacity="1"
       d="m 26.994029,100.42128 h 0.791406 v 22.06015 h -0.791406 z m 0,0"
       id="path310"
       style="stroke-width:2.81385" />
    <g
       clip-path="url(#clip-30)"
       id="g342"
       transform="matrix(2.8138536,0,0,2.8138536,-161.09449,87.813893)">
      <path
         fill-rule="nonzero"
         fill="#ff6600"
         fill-opacity="1"
         d="m 67.121094,4.480469 h 7.558594 v 7.558593 h -7.558594 z m 0,0"
         id="path342" />
    </g>
    <path
       fill-rule="nonzero"
       fill="#ffffff"
       fill-opacity="1"
       d="m 35.611456,105.05973 2.58303,5.36388 2.572039,-5.36388 h 2.209317 l -3.880045,7.29845 v 4.69339 h -1.813613 v -4.69339 l -3.880046,-7.29845 z m 0,0"
       id="path343"
       style="stroke-width:2.81385" />
    <g
       fill="#000000"
       fill-opacity="1"
       id="g346"
       transform="matrix(2.8138536,0,0,2.8138536,-161.09449,87.813893)">
      <g
         id="use343"
         transform="translate(77.063004,10.22)">
        <path
           d="M 0.515625,-4.078125 H 1.5625 v 1.546875 h 1.546875 v -1.546875 h 1.0625 V 0 h -1.0625 V -1.734375 H 1.5625 V 0 H 0.515625 Z m 0,0"
           id="path10" />
      </g>
      <g
         id="use344"
         transform="translate(81.749718,10.22)">
        <path
           d="m 1.84375,-1.375 c -0.210938,0 -0.367188,0.039062 -0.46875,0.109375 -0.105469,0.0625 -0.15625,0.164063 -0.15625,0.296875 0,0.125 0.039062,0.226562 0.125,0.296875 0.082031,0.0625 0.203125,0.09375 0.359375,0.09375 0.175781,0 0.328125,-0.0625 0.453125,-0.1875 0.125,-0.132813 0.1875,-0.300781 0.1875,-0.5 V -1.375 Z M 3.328125,-1.75 V 0 H 2.34375 v -0.453125 c -0.125,0.1875 -0.273438,0.324219 -0.4375,0.40625 -0.167969,0.0820312 -0.367188,0.125 -0.59375,0.125 -0.324219,0 -0.585938,-0.0859375 -0.78125,-0.265625 -0.199219,-0.1875 -0.296875,-0.429688 -0.296875,-0.734375 0,-0.351563 0.125,-0.613281 0.375,-0.78125 0.25,-0.164063 0.632813,-0.25 1.15625,-0.25 H 2.34375 V -2.03125 c 0,-0.15625 -0.0625,-0.269531 -0.1875,-0.34375 -0.117188,-0.070312 -0.304688,-0.109375 -0.5625,-0.109375 -0.210938,0 -0.40625,0.023437 -0.59375,0.0625 -0.179688,0.042969 -0.339844,0.105469 -0.484375,0.1875 v -0.75 c 0.207031,-0.039063 0.414063,-0.078125 0.625,-0.109375 0.207031,-0.03125 0.414063,-0.046875 0.625,-0.046875 0.550781,0 0.945313,0.109375 1.1875,0.328125 0.25,0.21875 0.375,0.574219 0.375,1.0625 z m 0,0"
           id="path12" />
      </g>
      <g
         id="use345"
         transform="translate(85.528625,10.22)">
        <path
           d="m 2.9375,-2.96875 v 0.796875 C 2.8125,-2.253906 2.679688,-2.316406 2.546875,-2.359375 2.410156,-2.410156 2.269531,-2.4375 2.125,-2.4375 c -0.273438,0 -0.484375,0.085938 -0.640625,0.25 -0.148437,0.15625 -0.21875,0.375 -0.21875,0.65625 0,0.292969 0.070313,0.515625 0.21875,0.671875 0.15625,0.15625 0.367187,0.234375 0.640625,0.234375 0.15625,0 0.300781,-0.019531 0.4375,-0.0625 0.132812,-0.039062 0.257812,-0.109375 0.375,-0.203125 V -0.09375 C 2.789062,-0.03125 2.632812,0.0078125 2.46875,0.03125 2.3125,0.0625 2.15625,0.078125 2,0.078125 c -0.554688,0 -0.984375,-0.140625 -1.296875,-0.421875 -0.3125,-0.28125 -0.46875,-0.675781 -0.46875,-1.1875 0,-0.5 0.15625,-0.890625 0.46875,-1.171875 0.3125,-0.289063 0.742187,-0.4375 1.296875,-0.4375 0.164062,0 0.320312,0.015625 0.46875,0.046875 0.15625,0.03125 0.3125,0.074219 0.46875,0.125 z m 0,0"
           id="path16" />
      </g>
      <g
         id="use346"
         transform="translate(88.84816,10.22)">
        <path
           d="m 0.46875,-4.25 h 0.984375 v 2.3125 l 1.125,-1.125 h 1.125 L 2.21875,-1.65625 3.828125,0 h -1.1875 l -1.1875,-1.28125 V 0 H 0.46875 Z m 0,0"
           id="path17" />
      </g>
    </g>
    <g
       fill="#000000"
       fill-opacity="1"
       id="g350"
       transform="matrix(2.8138536,0,0,2.8138536,-161.09449,87.813893)">
      <g
         id="use347"
         transform="translate(92.426781,10.22)">
        <path
           d="m 3.515625,-1.53125 v 0.265625 h -2.28125 c 0.019531,0.230469 0.101563,0.402344 0.25,0.515625 0.144531,0.117188 0.34375,0.171875 0.59375,0.171875 0.207031,0 0.414063,-0.023437 0.625,-0.078125 C 2.921875,-0.71875 3.144531,-0.8125 3.375,-0.9375 v 0.75 C 3.144531,-0.09375 2.914062,-0.0234375 2.6875,0.015625 2.457031,0.0546875 2.222656,0.078125 1.984375,0.078125 1.429688,0.078125 1,-0.0625 0.6875,-0.34375 0.382812,-0.625 0.234375,-1.019531 0.234375,-1.53125 c 0,-0.5 0.148437,-0.890625 0.453125,-1.171875 0.300781,-0.289063 0.71875,-0.4375 1.25,-0.4375 0.476562,0 0.859375,0.148437 1.140625,0.4375 0.289063,0.292969 0.4375,0.683594 0.4375,1.171875 z m -1,-0.328125 c 0,-0.1875 -0.058594,-0.335937 -0.171875,-0.453125 -0.105469,-0.113281 -0.242188,-0.171875 -0.40625,-0.171875 -0.199219,0 -0.355469,0.058594 -0.46875,0.171875 -0.117188,0.105469 -0.1875,0.257812 -0.21875,0.453125 z m 0,0"
           id="path18" />
      </g>
      <g
         id="use348"
         transform="translate(96.224823,10.22)">
        <path
           d="M 2.75,-2.21875 C 2.65625,-2.257812 2.566406,-2.289062 2.484375,-2.3125 c -0.085937,-0.019531 -0.167969,-0.03125 -0.25,-0.03125 -0.25,0 -0.445313,0.085938 -0.578125,0.25 -0.136719,0.15625 -0.203125,0.386719 -0.203125,0.6875 V 0 H 0.46875 v -3.0625 h 0.984375 v 0.5 C 1.578125,-2.757812 1.71875,-2.90625 1.875,-3 c 0.164062,-0.09375 0.363281,-0.140625 0.59375,-0.140625 0.03125,0 0.0625,0.00781 0.09375,0.015625 0.039062,0 0.097656,0.00781 0.171875,0.015625 z m 0,0"
           id="path11" />
      </g>
      <g
         id="use349"
         transform="translate(98.986542,10.22)" />
      <g
         id="use350"
         transform="translate(100.93615,10.22)">
        <path
           d="M 0.515625,-4.078125 H 1.6875 l 1.484375,2.796875 v -2.796875 h 1 V 0 H 3 L 1.515625,-2.796875 V 0 h -1 z m 0,0"
           id="path13" />
      </g>
    </g>
    <g
       fill="#000000"
       fill-opacity="1"
       id="g353"
       transform="matrix(2.8138536,0,0,2.8138536,-161.09449,87.813893)">
      <g
         id="use351"
         transform="translate(105.63967,10.22)">
        <path
           d="m 3.515625,-1.53125 v 0.265625 h -2.28125 c 0.019531,0.230469 0.101563,0.402344 0.25,0.515625 0.144531,0.117188 0.34375,0.171875 0.59375,0.171875 0.207031,0 0.414063,-0.023437 0.625,-0.078125 C 2.921875,-0.71875 3.144531,-0.8125 3.375,-0.9375 v 0.75 C 3.144531,-0.09375 2.914062,-0.0234375 2.6875,0.015625 2.457031,0.0546875 2.222656,0.078125 1.984375,0.078125 1.429688,0.078125 1,-0.0625 0.6875,-0.34375 0.382812,-0.625 0.234375,-1.019531 0.234375,-1.53125 c 0,-0.5 0.148437,-0.890625 0.453125,-1.171875 0.300781,-0.289063 0.71875,-0.4375 1.25,-0.4375 0.476562,0 0.859375,0.148437 1.140625,0.4375 0.289063,0.292969 0.4375,0.683594 0.4375,1.171875 z m -1,-0.328125 c 0,-0.1875 -0.058594,-0.335937 -0.171875,-0.453125 -0.105469,-0.113281 -0.242188,-0.171875 -0.40625,-0.171875 -0.199219,0 -0.355469,0.058594 -0.46875,0.171875 -0.117188,0.105469 -0.1875,0.257812 -0.21875,0.453125 z m 0,0"
           id="path19" />
      </g>
      <g
         id="use352"
         transform="translate(109.43772,10.22)">
        <path
           d="m 0.203125,-3.0625 h 0.9375 L 1.65625,-0.953125 2.171875,-3.0625 H 3 L 3.5,-0.96875 4.015625,-3.0625 H 4.96875 L 4.171875,0 H 3.09375 L 2.578125,-2.109375 2.078125,0 H 1 Z m 0,0"
           id="path14" />
      </g>
      <g
         id="use353"
         transform="translate(114.61115,10.22)">
        <path
           d="m 2.859375,-2.96875 v 0.75 C 2.648438,-2.3125 2.445312,-2.378906 2.25,-2.421875 c -0.1875,-0.039063 -0.371094,-0.0625 -0.546875,-0.0625 -0.1875,0 -0.328125,0.027344 -0.421875,0.078125 -0.085938,0.042969 -0.125,0.109375 -0.125,0.203125 0,0.085937 0.03125,0.148437 0.09375,0.1875 0.070312,0.042969 0.195312,0.074219 0.375,0.09375 l 0.171875,0.015625 c 0.5,0.0625 0.832031,0.167969 1,0.3125 0.175781,0.148438 0.265625,0.375 0.265625,0.6875 0,0.335938 -0.121094,0.585938 -0.359375,0.75 C 2.460938,0 2.101562,0.078125 1.625,0.078125 1.425781,0.078125 1.21875,0.0625 1,0.03125 0.78125,0 0.5625,-0.046875 0.34375,-0.109375 v -0.75 c 0.1875,0.09375 0.382812,0.167969 0.59375,0.21875 0.207031,0.042969 0.414062,0.0625 0.625,0.0625 0.1875,0 0.328125,-0.023437 0.421875,-0.078125 0.101563,-0.050781 0.15625,-0.128906 0.15625,-0.234375 0,-0.082031 -0.039063,-0.144531 -0.109375,-0.1875 C 1.96875,-1.117188 1.835938,-1.15625 1.640625,-1.1875 L 1.46875,-1.203125 C 1.03125,-1.253906 0.722656,-1.351562 0.546875,-1.5 c -0.167969,-0.144531 -0.25,-0.367188 -0.25,-0.671875 0,-0.320313 0.109375,-0.5625 0.328125,-0.71875 0.21875,-0.164063 0.554688,-0.25 1.015625,-0.25 0.1875,0 0.378906,0.015625 0.578125,0.046875 0.195312,0.03125 0.410156,0.074219 0.640625,0.125 z m 0,0"
           id="path15" />
      </g>
    </g>
  </g>
</svg>
